/* XPM */
static char *magick[] = {
/* columns rows colors chars-per-pixel */
"32 32 9 1",
"  c black",
". c #0000c0",
"X c blue",
"o c teal",
"O c #00c0c0",
"+ c fractal",
"@ c silver",
"# c gray100",
"$ c None",
/* pixels */
"$$$$$$$$$$$$$$$$$$$$$$$$$$$$$$$$",
"$$$$$$$$$$$$$  $$$$$$$$$$$$$$$$$",
"$$$$$$$$$$$$$ +  $$$$$$$$$$$$$$$",
"$$$$$$$$$$$$$ @@   $$$$$$$$$$$$$",
"$$$$$  $$$$$$ @@ ..  $$$$$$$$$$$",
"$$$$$ +  $$$$  + XX..  $$$$$$$$$",
"$$$$$ @@   $$ @  ..XX..  $$$$$$$",
"$$$$$ @@ ..   ##@  ..XX.   $$$$$",
"$$$$$  + XX..  @##@  ..X @+  $$$",
"$$$$$ @  ..XX..  @##@  . @@ +  $",
"$$$$$ ##@  ..XX.   @##@  +@ @@ $",
"$$$$$ ####@  ..X @+  @##@   @@ $",
"$$$$$ ######@  . @@ +  ###@  + $",
"$$$$$ ########@  +@ @@ @####@  $",
"$  $$ ##########@   @@ @@####@ $",
"$ o   ############@  + @@####@ $",
"$ Ooo  @############@  @@####@ $",
"$ oOOoo  @###########@ @@####@ $",
"$  ooOOoo  @#########@ @@####@ $",
"$ @  ooOO +  ########@ @@####@ $",
"$ ##@  oo @@ @#######@ @@####@ $",
"$ ####@   @@ @@######@ @@####@ $",
"$ ######@  + @@######@ @@@###@ $",
"$ ########@  @@######@   @@@#@ $",
"$ @@#######@ @@@#####@ $$  @@@ $",
"$  @@@#####@   @@@###@ $$$$  @ $",
"$$$  @@@###@ $$  @@@#@ $$$$$$  $",
"$$$$$  @@@#@ $$$$  @@@ $$$$$$$$$",
"$$$$$$$  @@@ $$$$$$  @ $$$$$$$$$",
"$$$$$$$$$  @ $$$$$$$$  $$$$$$$$$",
"$$$$$$$$$$$  $$$$$$$$$$$$$$$$$$$",
"$$$$$$$$$$$$$$$$$$$$$$$$$$$$$$$$"
};
