/* XPM */
static char *fileprint[]={
"16 16 71 2",
"Qt c None",
".n c #000000",
"#d c #00ff00",
".R c #313031",
"#c c #393839",
".o c #3a3a3a",
".9 c #414441",
"#b c #4a444a",
".O c #524829",
".G c #524c29",
".b c #574637",
".a c #584637",
".h c #5a4831",
".# c #5a4839",
".y c #5a595a",
".Q c #626562",
".I c #6a656a",
".X c #7b7d7b",
".4 c #837d83",
".3 c #838183",
".2 c #8b898b",
".1 c #9a9b9a",
".W c #9c999c",
".s c #9c9d9c",
".U c #a0a1a0",
".x c #a49da4",
".H c #a4a1a4",
".V c #a59fa5",
".P c #acaaac",
".z c #bd9973",
".d c #bd9d73",
".N c #bdb24a",
".5 c #bdb6bd",
"#. c #bdbabd",
"#e c #c5c6c5",
".6 c #cdc6cd",
".Y c #cdcacd",
".7 c #cdcecd",
"## c #cecbce",
".Z c #d5ced5",
"#a c #d7d0d7",
".M c #dec294",
".m c #e6c29c",
".B c #e6ceac",
".8 c #e6e2e6",
".T c #e6e6e6",
".J c #eec28b",
".A c #eec294",
".K c #eeceac",
".L c #eed2bd",
".F c #eed6bd",
".E c #eedacd",
".w c #eedecd",
".r c #eee2cd",
".D c #eee2d5",
".t c #eee6d5",
".0 c #eee6ee",
".S c #f0ecf0",
".l c #f6e2cd",
".g c #f6e2d5",
".C c #f6e6de",
".q c #f6eade",
".k c #f6eae6",
".e c #f6eee6",
".u c #f6eeee",
".p c #ffeeee",
".v c #fff2ee",
".j c #fff2f6",
".i c #fff6f6",
".f c #fffaff",
".c c #ffffff",
"QtQtQtQtQtQtQtQt.#.a.bQtQtQtQtQt",
"QtQtQtQtQtQtQt.#.c.c.d.#.#QtQtQt",
"QtQtQtQtQtQt.#.e.f.f.f.c.g.h.#Qt",
"QtQtQtQtQtQt.h.i.f.f.i.j.k.l.m.n",
"QtQtQtQt.o.#.p.i.f.i.j.e.q.r.d.n",
"QtQtQt.o.s.#.t.u.u.v.k.q.w.m.nQt",
"QtQt.o.x.y.z.A.B.C.D.g.E.F.y.GQt",
"Qt.o.s.H.H.I.n.z.J.K.L.m.M.n.N.O",
".o.x.H.s.H.s.P.Q.n.I.d.z.R.N.GQt",
".o.S.c.T.U.V.s.s.W.H.Q.n.Q.O.X.n",
".o.Y.Z.T.S.c.0.1.s.2.2.3.3.4.y.n",
".o.H.5.6.Y.7.8.S.c.T.X.3.X.y.9.n",
"Qt.n.n.y.H#..6###a.T.c.c.y#b#c.n",
"QtQtQtQt.n.n.y.H.5.6#d#e.9#c.nQt",
"QtQtQtQtQtQtQt.n.n.y.H#.#c.nQtQt",
"QtQtQtQtQtQtQtQtQtQt.n.n.nQtQtQt"};
