/* XPM */
static char *magick[] = {
/* columns rows colors chars-per-pixel */
"16 16 60 1",
"  c black",
". c gray11",
"X c #232110",
"o c #252525",
"O c #2c2c2c",
"+ c gray19",
"@ c gray23",
"# c #5a5000",
"$ c #4b452a",
"% c #716b32",
"& c #444444",
"* c gray40",
"= c #6a6a6a",
"- c #717171",
"; c #7c7c7c",
": c #857414",
"> c #86761f",
", c #8a7e2d",
"< c #a49941",
"1 c #aba062",
"2 c #bfa47f",
"3 c #bbb574",
"4 c #c09b6b",
"5 c #c09f71",
"6 c #c1a176",
"7 c #c2a67f",
"8 c #838383",
"9 c gray55",
"0 c gray58",
"q c gray61",
"w c #bea585",
"e c #bdac92",
"r c #a2a2a2",
"t c #afafaf",
"y c #bdb4ac",
"u c #b6b6b6",
"i c gray74",
"p c #c2ab89",
"a c #c3af94",
"s c #c3b59e",
"d c #c4b9a9",
"f c #c6beb3",
"g c #d2cc8f",
"h c #e9c9a0",
"j c #ebd0aa",
"k c #edd6b8",
"l c gray76",
"z c gray80",
"x c #d5d5d5",
"c c gray87",
"v c #e1dedc",
"b c #f0ddc1",
"n c #f1e3ce",
"m c #f5e9da",
"M c #f6f6db",
"N c #e2e2e2",
"B c #f8f0e5",
"V c #f9f6f2",
"C c gray100",
"Z c None",
/* pixels */
"ZZZZZX%,#ZZZZZZZ",
"Z@@@@<Cg1#@@@@ZZ",
"@Ncc>Mg3<:#lliOZ",
"@crq>##$$$$;;-oZ",
"@crq00&&&&&&&*oZ",
"@xq000&ccccc=&.Z",
"@z0000&cCCCC-V&Z",
"@z0009&cCCCC-=&&",
"@l9999&cCCCVBvy ",
"@i9988&cCCVBmne ",
"@u8888&cCVBmnbw ",
"@t888;&cVBmnbk2 ",
"@t;;;;&cBmnbkj6 ",
"O***==&cmnbkjh5 ",
"Z     &fdsap764 ",
"ZZZZZZ&        +"
};
