/* XPM */
static char *magick[] = {
/* columns rows colors chars-per-pixel */
"16 16 45 1",
"  c black",
". c gray19",
"X c gray26",
"o c #585858",
"O c #6c6c6c",
"+ c gray44",
"@ c #820202",
"# c #cd4135",
"$ c #e8786c",
"% c #8f8984",
"& c #898989",
"* c gray60",
"= c #beb6af",
"- c #bcb7b1",
"; c #c79f80",
": c #c8a487",
"> c #c9a68a",
", c #caa98e",
"< c #cbad94",
"1 c #cdb29c",
"2 c #cfb7a4",
"3 c #d1bdac",
"4 c #d1bfb0",
"5 c #d3c3b7",
"6 c #e9c7aa",
"7 c #ecceb4",
"8 c #eed5be",
"9 c #cecece",
"0 c #d5c9c0",
"q c #d7cfc9",
"w c gray87",
"e c #ffc0c0",
"r c #f0dac6",
"t c #f2ddcb",
"y c #e5e0dc",
"u c #f3e2d3",
"i c #f5e6d9",
"p c #f6e9de",
"a c #eaeaea",
"s c #f7ece2",
"d c #faf1eb",
"f c #f6f5f5",
"g c #fbf6f2",
"h c gray100",
"j c None",
/* pixels */
"jjoooooooooojjjj",
"jjowwwwww-o*ojjj",
"jjowhhhhhaOh*ojj",
"jjowhhhhhhO9h*.j",
"jjowhhhhhh&+OX.j",
"jjowhhhhhhfy-%.j",
"jjowhhhhhhhgy=.j",
"jjowh$ehhe$dp4.j",
"jjowh@#ee#@pu3.j",
"jjowhh@##@put2.j",
"jjowhhe##eiur1.j",
"jjowhe#@@#er8<.j",
"jjowe$@si@#87,.j",
"jjowd@siur@76:.j",
"jjoqqq05321<>;.j",
"jjoo...........j"
};
