/* XPM */
static char *magick[] = {
/* columns rows colors chars-per-pixel */
"16 16 5 1",
"  c black",
". c fractal",
"X c gray75",
"o c gray100",
"O c None",
/* pixels */
"OOOOOOOOOOOOOOOO",
"OOOOOOOOOOOOOOOO",
"O             OO",
" ooooooooooooo O",
" ooooooooooooo O",
" oo .ooooooooo O",
" oo .ooooooooo O",
" oo .ooooooooo O",
" oo .ooooooooo O",
" oo .ooooooooo O",
" oo .ooooooooo O",
" ooooooooooooo O",
" ooooooooooooo O",
"O             OO",
"OOOOOOOOOOOOOOOO",
"OOOOOOOOOOOOOOOO"
};
