/* XPM */
static char *magick[] = {
/* columns rows colors chars-per-pixel */
"16 16 40 1",
"  c black",
". c gray19",
"X c gray26",
"o c #585858",
"O c #6d6d6d",
"+ c gray44",
"@ c #be9b6d",
"# c #bf9f75",
"$ c #bda07a",
"% c #979797",
"& c gray61",
"* c #bda583",
"= c #bbac94",
"- c gray64",
"; c gray67",
": c #bcb4ad",
"> c #b4b4b4",
", c #bbbbbb",
"< c #c1aa8a",
"1 c #c1ae96",
"2 c #c2b59f",
"3 c #c3b9aa",
"4 c #c5beb4",
"5 c #e6c9a3",
"6 c #e9d0ac",
"7 c #ecd6b9",
"8 c #c3c3c3",
"9 c gray83",
"0 c gray87",
"q c #efdcc2",
"w c #e0dedd",
"e c #f1e3ce",
"r c #f4e9db",
"t c #e4e4e4",
"y c gray93",
"u c #f8f0e5",
"i c #f3f3f3",
"p c #f9f6f3",
"a c gray100",
"s c None",
/* pixels */
"ooooooosssaaaaaa",
"o00000OXssaaaaaa",
"o0aaaa+pXsaaaaaa",
"o0aaaa++XXaaaaaa",
"o0aaapuw: oooaaa",
"o0aapure= ;0OXaa",
"o0apureq* 8a+pXa",
"o0pureq7* 8a++XX",
"o0ureq76$ 8pit> ",
"o0req765# ,iyy; ",
"o4321<*#@ ,yt0- ",
"o        .>tt0- ",
"aaaaaao;,>;t09& ",
"aaaaaao0ytt099% ",
"aaaaaao,,>;;-&% ",
"aaaaaao        ."
};
