/* XPM */
static char * exec_xpm[] = {
"16 16 126 2",
"  	c None",
". 	c #403F3D",
"+ 	c #1D1D1D",
"@ 	c #BCBDBE",
"# 	c #BCBCBE",
"$ 	c #3F3F3D",
"% 	c #1F1F1F",
"& 	c #1B1B1B",
"* 	c #CECDD2",
"= 	c #686865",
"- 	c #7E7C75",
"; 	c #AEAA9E",
"> 	c #AFAA9F",
", 	c #817F76",
"' 	c #6D6D69",
") 	c #D4D5D6",
"! 	c #1A1A19",
"~ 	c #C1C2C2",
"{ 	c #988D7A",
"] 	c #B89358",
"^ 	c #C59A53",
"/ 	c #C79C55",
"( 	c #B9975D",
"_ 	c #9C9480",
": 	c #CECFCF",
"< 	c #6E6D6C",
"[ 	c #9B8E78",
"} 	c #D39B4A",
"| 	c #E3A74E",
"1 	c #E1AC56",
"2 	c #E5B263",
"3 	c #F0BE76",
"4 	c #DCAE6C",
"5 	c #A59782",
"6 	c #767674",
"7 	c #3C3C3A",
"8 	c #81807E",
"9 	c #8A8985",
"0 	c #ABA59C",
"a 	c #BA9350",
"b 	c #DFA44B",
"c 	c #D19D4F",
"d 	c #4E3C23",
"e 	c #514028",
"f 	c #E3BE8C",
"g 	c #FAD39D",
"h 	c #C29D69",
"i 	c #B7B3AA",
"j 	c #8E8D89",
"k 	c #848382",
"l 	c #333334",
"m 	c #3A3A36",
"n 	c #C4C4C3",
"o 	c #CAC8C6",
"p 	c #BAB6AE",
"q 	c #CDA35F",
"r 	c #DDA64E",
"s 	c #6F552D",
"t 	c #77684D",
"u 	c #FCDEAB",
"v 	c #DFBF94",
"w 	c #CAC7BE",
"x 	c #CFCFCB",
"y 	c #CBCACA",
"z 	c #2F2F2F",
"A 	c #0B0B09",
"B 	c #2F2E29",
"C 	c #A39F96",
"D 	c #DAB988",
"E 	c #E4AD59",
"F 	c #F4C585",
"G 	c #695940",
"H 	c #696147",
"I 	c #FDF5BE",
"J 	c #F9E5B1",
"K 	c #E7D2B4",
"L 	c #B9B6B0",
"M 	c #312F2A",
"N 	c #0B0A08",
"O 	c #53524C",
"P 	c #C1BDB6",
"Q 	c #E8C593",
"R 	c #EEBD7D",
"S 	c #F8D6A1",
"T 	c #FBE7B2",
"U 	c #FCE7B2",
"V 	c #F2DFBC",
"W 	c #D9D6CC",
"X 	c #61605B",
"Y 	c #2B2A29",
"Z 	c #BBBAB6",
"` 	c #999791",
" .	c #B4B1AB",
"..	c #E3D4C2",
"+.	c #F3E0C4",
"@.	c #F6E4C3",
"#.	c #F3E9D5",
"$.	c #CFCCC4",
"%.	c #B5B3AB",
"&.	c #CECECC",
"*.	c #2E2E2E",
"=.	c #060504",
"-.	c #84837D",
";.	c #BBB9B3",
">.	c #6A6861",
",.	c #403E37",
"'.	c #71716C",
").	c #B2B4B1",
"!.	c #B4B5B1",
"~.	c #76756E",
"{.	c #6F6E68",
"].	c #CCCCCC",
"^.	c #8E8F8C",
"/.	c #050503",
"(.	c #252522",
"_.	c #4D4C44",
":.	c #36342D",
"<.	c #C3C2BF",
"[.	c #C6C5C3",
"}.	c #35332C",
"|.	c #504E47",
"1.	c #262522",
"2.	c #8C8B85",
"3.	c #8E8D88",
"4.	c #2C2A26",
"5.	c #2C2A25",
"                                ",
"              . .               ",
"      +     . @ # $     %       ",
"    & * . = - ; > , ' . ) !     ",
"      . ~ { ] ^ / ( _ : .       ",
"      < [ } | 1 2 3 4 5 6       ",
"7 8 9 0 a b c d e f g h i j k l ",
"m n o p q r s     t u v w x y z ",
"  A B C D E F G H I J K L M N   ",
"      O P Q R S T U V W X       ",
"    Y Z `  ...+.@.#.$.%.&.*.    ",
"  =.-.;.>.,.'.).!.~.,.{.].^./.  ",
"    (._.:.  . <.[..   }.|.1.    ",
"              2.3.              ",
"              4.5.              ",
"                                "};
