/* XPM */
static char *magick[] = {
/* columns rows colors chars-per-pixel */
"16 16 55 1",
"  c black",
". c #313031",
"X c #3a393a",
"o c #524a29",
"O c #574637",
"+ c #584637",
"@ c #5a4831",
"# c #5a4839",
"$ c #414441",
"% c #4a444a",
"& c gray35",
"* c #626562",
"= c #6a656a",
"- c #7b7d7b",
"; c lime",
": c #837d83",
"> c #bd9b73",
", c #bdb24a",
"< c #838183",
"1 c #8b898b",
"2 c gray61",
"3 c #a49ea4",
"4 c #a4a1a4",
"5 c #acaaac",
"6 c #bdb6bd",
"7 c #bdbabd",
"8 c #dfc196",
"9 c #eec28b",
"0 c #e6c29c",
"q c #eec294",
"w c #e6ceac",
"e c #eeceac",
"r c #eed4bd",
"t c #c5c6c5",
"y c #cdc6cd",
"u c #cdcbcd",
"i c #d5ced5",
"p c #d7d0d7",
"a c #eedccd",
"s c #eee2cd",
"d c #eee4d5",
"f c #f6e2cd",
"g c #f6e2d5",
"h c #f6e6de",
"j c #f6eade",
"k c #e6e5e6",
"l c #eee6ee",
"z c #f6ece6",
"x c #f6eeee",
"c c #ffeeee",
"v c #f0ecf0",
"b c #fff2ee",
"n c #fff5f6",
"m c #fffdff",
"M c None",
/* pixels */
"MMMMMMMM#++MMMMM",
"MMMMMMM#mm>++MMM",
"MMMMMM#zmmmmg@#M",
"MMMMMM@nmmnnzf0 ",
"MMMMX#cnmnnzzs> ",
"MMMX2#dxxbzja0 M",
"MMX3&>qwhdgar&oM",
"MX244= >9er08 ,o",
"X342425* =>>.,oM",
"Xvmk432223* *o- ",
"Xupkvml2211<<:& ",
"X46yuukvmk-<-&$ ",
"M  &47yupkmm&%X ",
"MMMM  &46y;t$X M",
"MMMMMMM  &47X MM",
"MMMMMMMMMM   MMM"
};
