/* XPM */
static char *magick[] = {
/* columns rows colors chars-per-pixel */
"16 16 38 1",
"  c black",
". c gray7",
"X c #1f1f1e",
"o c #232322",
"O c #323232",
"+ c #4e331b",
"@ c #434343",
"# c gray29",
"$ c #524f4c",
"% c #54514e",
"& c #565350",
"* c #5c5a57",
"= c #686867",
"- c #6f6f6e",
"; c #b77d44",
": c #c4864e",
"> c #e5a566",
", c #f8ac62",
"< c #8d8d8b",
"1 c #949493",
"2 c #9c9c9b",
"3 c #a0a09f",
"4 c #a4a4a3",
"5 c #acacab",
"6 c gray71",
"7 c #bcbcbb",
"8 c #fec383",
"9 c #fec88a",
"0 c #fed39a",
"q c #c4c4c3",
"w c #cccccb",
"e c #d4d4d3",
"r c gainsboro",
"t c #e4e4e3",
"y c #e8e8e7",
"u c #ececec",
"i c gray96",
"p c None",
/* pixels */
"pppppppppppppppp",
"pppppppppppppppp",
"pppppppppppppppp",
"pppppppppppppppp",
"pppppppppppppppp",
"p++++ppppppppppp",
"+>09>+++++++pppp",
"+098,,,,,,,,pppp",
"+88+%%%*%%&&%ppp",
"+8:$iiutrewq766O",
"+8+rryyteq7521#p",
"+;%rrtrew7653=op",
"++wqreewq7541#pp",
"+%w7qqq76542-.pp",
"+7455554321<#ppp",
"o##$####@@@OXppp"
};
