/* XPM */
static char *magick[] = {
/* columns rows colors chars-per-pixel */
"16 16 29 1",
"  c black",
". c #0c0c0c",
"X c gray11",
"o c gray17",
"O c #343434",
"+ c gray24",
"@ c #444444",
"# c gray29",
"$ c #535353",
"% c #585858",
"& c #656565",
"* c gray42",
"= c #767676",
"- c #7b7b7b",
"; c gray51",
": c gray54",
"> c #929292",
", c gray61",
"< c #a0a0a0",
"1 c #aeaeae",
"2 c #bbbbbb",
"3 c #cbcbcb",
"4 c #d2d2d2",
"5 c gray85",
"6 c #e6e6e6",
"7 c gray92",
"8 c #f6f6f6",
"9 c #fefefe",
"0 c None",
/* pixels */
"0000OOO<00000000",
"000%,$>&OO<00000",
"000O;&5995&OO<00",
"00,o>19999997%OO",
"00%:;59999999*3 ",
"00o=&99999997+2%",
"0<o-58899999*>$<",
"0#;=;&299999+3 0",
"0o==--;;&;9-#,$0",
"0O=%=%%&&&%#:$<0",
"%;%>97;@$$%+4.00",
"O+#767699###>$00",
"-O 77777@$#;$<00",
"00<OOO67O$+4X000",
"00000<OOO+%,$000",
"00000000,OOO0000"
};
