/* XPM */
static char * fileclose_xpm[] = {
"16 16 21 1",
" 	c None",
".	c #5A555A",
"+	c #202020",
"@	c #181818",
"#	c #080808",
"$	c #7B757B",
"%	c #393C39",
"&	c #5A595A",
"*	c #414441",
"=	c #292C29",
"-	c #080C08",
";	c #000000",
">	c #6A656A",
",	c #525552",
"'	c #5A5D5A",
")	c #7B797B",
"!	c #292429",
"~	c #525052",
"{	c #FFFFFF",
"]	c #6A696A",
"^	c #100C10",
"                ",
"                ",
"      .+@#.     ",
"    $%&.*=-;$   ",
"   $>,')>*!;;$  ",
"   %~{{]).{{;;  ",
"  .&'{{{'{{{;;. ",
"  +.)]{{{{{-;;; ",
"  @*>)'{{{!;;;; ",
"  #=*.{{{{{;;;; ",
"  .^!{{{!{{{;;. ",
"   ;;{{-;;{{;;  ",
"   $;;;;;;;;;$  ",
"    $;;;;;;;$   ",
"      .;;;.     ",
"                "};
