/* XPM */
static char *magick[] = {
/* columns rows colors chars-per-pixel */
"16 16 44 1",
"  c black",
". c gray19",
"X c gray26",
"o c #585858",
"O c #6c6c6c",
"+ c gray44",
"@ c #8f8984",
"# c #898989",
"$ c gray60",
"% c #beb6af",
"& c #bcb7b1",
"* c #c79f80",
"= c #c8a487",
"- c #c9a68a",
"; c #caa98e",
": c #cbad94",
"> c #cdb29c",
", c #cfb7a4",
"< c #d1bdac",
"1 c #d1bfb0",
"2 c #d3c3b7",
"3 c #e9c7aa",
"4 c #ecceb4",
"5 c #eed4be",
"6 c #cecece",
"7 c #d5c9c0",
"8 c #d7cfc9",
"9 c gray87",
"0 c #f1dac7",
"q c #f2ddcb",
"w c #e5e0dc",
"e c #f2e0cf",
"r c #f3e2d2",
"t c #f5e6d9",
"y c #f6e9de",
"u c #eaeaea",
"i c #f7ece2",
"p c #f9eee5",
"a c #faf3ec",
"s c #f6f5f5",
"d c #fbf6f2",
"f c #fcf8f5",
"g c #fffefe",
"h c None",
/* pixels */
"hhooooooooohhhhh",
"hho99999&o$ohhhh",
"hho9gggguOg$ohhh",
"hho9ggggg+6g$.hh",
"hho9ggggg#OOX.hh",
"hho9gggggsw%@.hh",
"hho9ggggggdw&.hh",
"hho9gggggday2.hh",
"hho9gggfapyr<.hh",
"hho9ggfdpyrq,.hh",
"hho9ggfaitr0>.hh",
"hho9gfaitr05:.hh",
"hho9faitq054;.hh",
"hho9aite0543=.hh",
"hho8872<,>:-=.hh",
"hho...........hh"
};
