/* XPM */
static char *magick[] = {
/* columns rows colors chars-per-pixel */
"16 16 57 1",
"  c black",
". c #0b0b0b",
"X c #101010",
"o c #272727",
"O c #3f3f3f",
"+ c #3f3f40",
"@ c #404041",
"# c #707071",
"$ c #3eaab3",
"% c #00c0c0",
"& c aqua",
"* c #43b2bc",
"= c #7f8281",
"- c #53c9d4",
"; c #60c1cd",
": c #6ec4cd",
"> c #68c6d1",
", c #71c6ce",
"< c #7ac4cb",
"1 c #7cc9cd",
"2 c #76cbd5",
"3 c #79cad4",
"4 c #76d7e3",
"5 c #78d8e3",
"6 c #808382",
"7 c #85ccd2",
"8 c #89c8d0",
"9 c #90d5db",
"0 c #90d9df",
"q c #8bd7e0",
"w c #8adbe5",
"e c #8fdfe8",
"r c #95e1ea",
"t c #a8d1d5",
"y c #aed6db",
"u c #b6d9dd",
"i c #b9dade",
"p c #abdee4",
"a c #b9dbe0",
"s c #ade4e8",
"d c #afe9f0",
"f c #b0eaef",
"g c #baecef",
"h c #beedf1",
"j c #c3c3c3",
"k c #c1d4d6",
"l c #ced8d9",
"z c #c4eaed",
"x c #caeaed",
"c c #cdecf0",
"v c #d7e5e6",
"b c #d7e5e8",
"n c #d3f2f5",
"m c #ddf4f6",
"M c #e3f4f4",
"N c #eafbfa",
"B c gray100",
/* pixels */
"BBBBoO.BBBBBBB@B",
"BB@ lvk +BBBBBBB",
"B+=Mmzps=+BBB66B",
"B MNmh0:g BB6@@@",
"Xunmnfe,3a.B6@@o",
"ovzhfr4;7x.BBooB",
".tpqw5-*1y BBBBB",
"B h2,>*$h BBBBBB",
"BO=h9<8h= &BBBBB",
"BBO ixy +&  BBBB",
"BBBB . B% #j BBB",
"BB+BBBBBB @#j BB",
"BBBB@BBBBB @#j B",
"B==BBBBBBBB @#j ",
"6@+@B@BBBBBB @# ",
"6@@oBBBBBBBBB  B"
};
