/* XPM */
static char *magick[] = {
/* columns rows colors chars-per-pixel */
"16 16 51 1",
"  c black",
". c #040b06",
"X c #040b0c",
"o c #090f10",
"O c #061413",
"+ c #091913",
"@ c #0a1f18",
"# c #0f2417",
"$ c #0d2419",
"% c #0b281e",
"& c #10211f",
"* c #14311f",
"= c #0d3525",
"- c #142724",
"; c #162d26",
": c #153220",
"> c #163a23",
", c #143d29",
"< c #1d442c",
"1 c #1e4335",
"2 c #224b31",
"3 c #245135",
"4 c #227d37",
"5 c #38774e",
"6 c #2a8f3d",
"7 c #259039",
"8 c #2f9645",
"9 c #3e9951",
"0 c #36a34d",
"q c #3faf57",
"w c #3bb057",
"e c #468166",
"r c #42b75b",
"t c #43ba5c",
"y c #55ae72",
"u c #5aa77b",
"i c #5ab975",
"p c #7ba08a",
"a c #88ab9c",
"s c #90bd9f",
"d c #afbeba",
"f c #9dc6aa",
"g c #b2d1bc",
"h c #bdcec7",
"j c #bfd0c8",
"k c #c1cecc",
"l c #c0d1c9",
"z c #c2dbca",
"x c #cfe0d4",
"c c #dbeadf",
"v c None",
/* pixels */
"vvvvvvvvvvvvvvvv",
"vvvvvvvvv  vvvvv",
"vvvvvvvv21<  vvv",
"vvvvvv22lcg,< vv",
"3vvvv2lc444sk: v",
">3v 2c44tw844h:v",
">p32c4rq,%%154: ",
">zaf40>Xvvvv+34#",
"=x770=vvvvvvv@4.",
">g974OvvvvvvvX#+",
">epiy4+vvvvvvOX ",
":       vvvvX& v",
" vvvvvvvvvvX;Xvv",
"vvvvvvvvvvo-Xvvv",
"vvvvvvvv X vvvvv",
"vvvvvvvvvvvvvvvv"
};
